<?xml version="1.0" encoding="utf-8"?><svg version="1.1" id="Layer_1" xmlns="http://www.w3.org/2000/svg" xmlns:xlink="http://www.w3.org/1999/xlink" x="0px" y="0px" viewBox="0 0 106.49 122.88" style="enable-background:new 0 0 106.49 122.88" xml:space="preserve"><style type="text/css">.st0{fill-rule:evenodd;clip-rule:evenodd;}</style><g><path class="st0" d="M14.7,68.78h77.15c4.89,0,8.89,4,8.89,8.89v6.75c-3.37,2.8-6.49,4.3-9.33,4.37 c-3.54,0.09-6.93-2.19-10.13-7.13l0,0c-0.17-0.26-0.39-0.5-0.66-0.69c-1.18-0.86-2.82-0.6-3.68,0.58 c-3.23,4.43-6.55,6.89-9.96,7.08c-3.45,0.18-7.31-1.93-11.63-6.66c-0.06-0.06-0.11-0.12-0.18-0.18c-1.08-0.98-2.75-0.9-3.73,0.18 c-4.05,4.44-7.84,6.75-11.36,6.79c-3.44,0.04-6.9-2.13-10.4-6.63l0,0c-0.16-0.2-0.35-0.38-0.57-0.54 c-1.19-0.84-2.84-0.55-3.68,0.64c-2.58,3.65-5.58,5.82-8.81,6.41c-2.21,0.4-4.59,0.02-7.14-1.02c-5.25-2.15-3.34-3.38-3.69-9.93 C5.54,72.79,9.81,68.78,14.7,68.78L14.7,68.78z M72.51,9.04c-0.16,0.17-0.33,0.34-0.53,0.55l-0.55,0.57L70.86,9.6 c-0.17-0.16-0.34-0.33-0.5-0.5c-1.74-1.75-3.06-3.06-5.79-3.12c-0.11,0-0.22,0-0.34,0c-1.53,0.04-2.94,0.59-3.98,1.54 c-1.02,0.94-1.68,2.28-1.72,3.91c0,0.1,0,0.21,0,0.32c0.12,4.57,4.46,8.6,8.05,11.93c0.69,0.64,1.36,1.26,2,1.89l2.65,2.6l3.39-3.3 c0.55-0.53,1.16-1.11,1.82-1.73c1.12-1.06,2.37-2.23,3.53-3.41c0.83-0.85,1.63-1.7,2.3-2.52c0.66-0.8,1.2-1.57,1.56-2.25 c0.58-1.12,0.76-2.25,0.65-3.31c-0.11-1.04-0.51-2.02-1.12-2.85c-0.62-0.85-1.44-1.55-2.39-2.04c-1.09-0.56-2.34-0.83-3.63-0.69 C75.14,6.3,73.95,7.54,72.51,9.04L72.51,9.04L72.51,9.04z M41.36,5.03c1.23-2.04,2.26-3.72,4.89-4.61 c1.52-0.52,3.11-0.53,4.58-0.16c1.27,0.33,2.46,0.95,3.42,1.8c0.98,0.86,1.75,1.95,2.18,3.21c0.43,1.28,0.52,2.72,0.12,4.27 c-0.22,0.87-0.62,1.84-1.13,2.86c-0.5,1-1.11,2.04-1.76,3.09c-0.89,1.44-1.86,2.87-2.73,4.16c-0.51,0.75-0.98,1.46-1.38,2.07 l-3,4.61l-0.42,0.65l-0.65-0.4l-3.81-2.35c-0.7-0.43-1.5-0.89-2.33-1.38c-4.5-2.61-9.93-5.76-11.22-10.84 c-0.03-0.12-0.06-0.25-0.09-0.39c-0.42-2.06,0.04-3.93,1.06-5.41c1.02-1.46,2.6-2.53,4.45-3.01c0.13-0.03,0.26-0.06,0.4-0.09 C37.21,2.44,39.01,3.54,41.36,5.03L41.36,5.03L41.36,5.03z M0,115.14h106.49v7.74H0V115.14L0,115.14z M25,28.37h56.4 c3.58,0,6.5,2.93,6.5,6.5v4.94c-2.47,2.04-4.75,3.14-6.82,3.19c-2.59,0.07-5.06-1.6-7.4-5.21l0,0c-0.12-0.19-0.29-0.36-0.48-0.51 c-0.86-0.63-2.06-0.44-2.69,0.42c-2.36,3.24-4.79,5.04-7.28,5.17c-2.52,0.14-5.34-1.41-8.5-4.87c-0.04-0.04-0.08-0.09-0.13-0.13 c-0.79-0.72-2.01-0.66-2.73,0.13c-2.96,3.25-5.73,4.93-8.3,4.96c-2.51,0.03-5.05-1.56-7.6-4.85l0,0c-0.11-0.15-0.25-0.28-0.41-0.39 c-0.87-0.61-2.08-0.4-2.69,0.47c-1.88,2.67-4.08,4.26-6.44,4.68c-1.62,0.29-3.36,0.01-5.22-0.75c-3.84-1.57-2.44-2.47-2.7-7.26 C18.3,31.3,21.42,28.37,25,28.37L25,28.37z M87.9,44.57v0.21h-0.34C87.67,44.71,87.79,44.64,87.9,44.57L87.9,44.57z M86.39,45.43 v19.85H20.1V45.87c2.4,0.96,4.75,1.22,6.99,0.81c2.73-0.49,5.22-1.96,7.39-4.34c2.88,3.05,5.92,4.52,9.11,4.49 c3.24-0.04,6.47-1.64,9.7-4.75c3.49,3.34,6.86,4.83,10.13,4.65c3.09-0.17,5.93-1.8,8.56-4.73c2.76,3.37,5.83,4.93,9.19,4.85 C82.88,46.81,84.62,46.33,86.39,45.43L86.39,45.43z M100.75,90.93v0.29h-0.47C100.44,91.13,100.59,91.03,100.75,90.93L100.75,90.93 z M98.69,92.11v20.79H7.99V92.71c3.28,1.31,6.5,1.66,9.57,1.11c3.73-0.67,7.15-2.68,10.11-5.93c3.94,4.17,8.1,6.18,12.46,6.14 c4.43-0.05,8.86-2.25,13.27-6.49c4.77,4.58,9.38,6.6,13.85,6.37c4.23-0.23,8.12-2.46,11.71-6.47c3.77,4.62,7.98,6.75,12.58,6.63 C93.88,94,96.26,93.34,98.69,92.11L98.69,92.11z"/></g></svg>